<?xml version="1.0" encoding="UTF-8"?>
<svg width="500px" height="500px" viewBox="0 0 500 500" version="1.1" xmlns="http://www.w3.org/2000/svg" xmlns:xlink="http://www.w3.org/1999/xlink">
    <!-- Generator: Sketch 62 (91390) - https://sketch.com -->
    <title>bouyguestelecom_sq</title>
    <desc>Created with Sketch.</desc>
    <g id="bouyguestelecom_sq" stroke="none" stroke-width="1" fill="none" fill-rule="evenodd">
        <g id="logo-bouygues-telecom" transform="translate(30.000000, 39.000000)" fill-rule="nonzero">
            <g id="Group-2" transform="translate(0.000000, 301.000000)" fill="#009DCC">
                <g id="Shape" transform="translate(0.000000, -0.000000)">
                    <path d="M45.1150097,37.0697856 C39.582846,30.705653 31.6233918,29.0417154 25.0705653,29.0417154 C19.0409357,29.0417154 12.3937622,31.6920078 10.2838207,33.9820663 L10.2838207,5.12904483 C10.2838207,2.43586745 8.09668616,0.248732943 5.40350877,0.248732943 C2.71033138,0.248732943 0.523196881,2.43586745 0.523196881,5.12904483 L0.514619883,83.9001949 C0.514619883,86.2245614 1.96413255,88.205848 4.00545809,89.0035088 C12.0249513,92.322807 20.9793372,92.8031189 25.0705653,92.8031189 C31.4261209,92.8031189 39.582846,91.1734893 45.1150097,84.8179337 C50.6300195,78.4709552 51.4276803,69.5937622 51.4276803,60.9395712 C51.4276803,52.2853801 50.6300195,43.4081871 45.1150097,37.0697856 L45.1150097,37.0697856 Z M37.9789474,78.3508772 C34.8569201,82.2619883 30.0023392,83.642885 25.0705653,83.642885 C21.2194932,83.642885 15.9703704,82.8194932 11.6046784,81.2756335 L11.6132554,81.2756335 C10.9099415,81.0440546 10.4124756,80.3922027 10.4124756,79.6202729 L10.4124756,48.9746589 C10.4124756,45.5095517 11.8705653,43.1680312 13.5087719,41.6327485 C15.5329435,39.737232 20.0358674,38.2448343 25.0705653,38.2448343 C30.1052632,38.2448343 34.8569201,39.625731 37.9789474,43.5368421 C41.1267057,47.4736842 41.5040936,53.9150097 41.5040936,60.9395712 C41.5040936,67.9641326 41.1267057,74.4140351 37.9789474,78.3508772 L37.9789474,78.3508772 Z"></path>
                    <path d="M104.502144,37.1812865 C98.9699805,30.731384 90.9933723,29.0502924 84.4576998,29.0416831 C77.9220273,29.0331384 69.9454191,30.731384 64.4132554,37.1812865 C58.8982456,43.6054581 58.1005848,52.0795322 58.1005848,60.3477583 C58.1005848,68.6245614 58.8982456,78.2393762 64.4132554,84.6721248 C69.9454191,91.1134503 77.9220273,92.8202729 84.4576998,92.811728 C90.9847953,92.8031189 98.9699805,91.1134503 104.502144,84.6721248 C110.017154,78.2393762 110.814815,69.1220273 110.814815,60.3477583 C110.814815,51.5820663 110.017154,43.6054581 104.502144,37.1812865 L104.502144,37.1812865 Z M97.3660819,78.1192982 C94.2440546,82.0818713 89.4923977,83.625731 84.4576998,83.625731 C79.4230019,83.625731 74.671345,82.0818713 71.5493177,78.1192982 C68.3929825,74.1224172 68.0241715,67.4752437 68.0241715,60.3477583 C68.0241715,53.2202729 68.3929825,47.7224172 71.5493177,43.7341131 C74.671345,39.77154 79.4230019,38.2362573 84.4576998,38.2362573 C89.4923977,38.2362573 94.2440546,39.77154 97.3660819,43.7341131 C100.51384,47.7224172 100.891228,53.2288499 100.891228,60.3477583 C100.891228,67.4752437 100.51384,74.1224172 97.3660819,78.1192982 L97.3660819,78.1192982 Z"></path>
                    <path d="M165.338791,35.294347 C165.338791,32.6354776 163.185965,30.4740741 160.527096,30.4740741 C157.868226,30.4740741 155.7154,32.6354776 155.7154,35.294347 L155.706823,80.5122807 C155.706823,81.3356725 155.106433,82.0818713 154.488889,82.3391813 C153.871345,82.5879142 151.203899,83.634308 142.112281,83.634308 C137.557895,83.634308 132.729045,81.8159844 129.769981,77.9048733 C126.793762,73.9680312 126.433528,67.0978558 126.433528,60.0732943 L126.433528,35.294347 C126.433528,32.6354776 124.280702,30.4740741 121.621832,30.4740741 C118.962963,30.4740741 116.810136,32.6354776 116.810136,35.294347 L116.801559,60.0561404 C116.801559,68.7103314 117.350487,78.0077973 122.976998,84.8093567 C127.883041,90.7532164 136.108382,92.8374269 142.112281,92.8374269 C145.929045,92.8374269 154.265887,93.1033138 161.779337,90.3072125 C163.846394,89.6124756 165.330214,86.9278752 165.330214,84.6292398 L165.338791,35.294347 L165.338791,35.294347 Z" id="Path"></path>
                    <path d="M199.475244,76.2752437 C199.209357,76.8499025 198.634698,77.2101365 198.017154,77.2101365 C197.262378,77.2015595 196.71345,76.4124756 196.516179,76.1208577 C194.980897,73.9337232 183.024561,40.7836257 180.434308,33.5789474 C179.525146,31.1430799 176.780507,29.8736842 174.344639,30.774269 C171.908772,31.6748538 170.639376,34.4109162 171.531384,36.8467836 L187.072904,78.0764133 C188.899805,82.9481481 191.524366,85.7099415 195.375439,87.0994152 L185.932164,112.127096 C184.997271,114.588694 186.232359,117.350487 188.702534,118.28538 C191.17271,119.220273 193.925926,117.976608 194.860819,115.51501 L224.631579,36.8810916 C225.532164,34.4538012 224.297076,31.7177388 221.88694,30.791423 C219.459649,29.8651072 216.689279,31.1001949 215.754386,33.5446394 L199.475244,76.2752437 L199.475244,76.2752437 Z" id="Path"></path>
                    <path d="M276.265107,37.8074074 C276.265107,35.7060429 275.021442,33.8962963 273.22885,33.0643275 C265.097856,29.5734893 255.877583,29.0588694 251.709162,29.0588694 C245.353606,29.0588694 237.188304,30.71423 231.664717,37.0697856 C226.149708,43.4081871 225.352047,53.1087719 225.352047,61.762963 C225.352047,70.417154 226.149708,78.3937622 231.664717,84.7407407 C237.188304,91.0962963 245.156335,92.8116959 251.709162,92.8116959 C257.738791,92.8116959 264.385965,90.1099415 266.495906,87.82846 L266.495906,96.0966862 C266.495906,100.530994 265.432359,104.038986 263.296686,106.500585 C261.186745,108.936452 258.193372,110.17154 254.393762,110.17154 C251.889279,110.17154 249.299025,109.845614 246.683041,109.202339 C244.092788,108.559064 239.684211,106.466277 238.131774,105.711501 C236.57076,104.965302 233.680312,105.539961 232.368031,107.649903 C231.05575,109.759844 231.930604,112.916179 233.989084,114.048343 C236.05614,115.180507 238.680702,116.732943 244.178558,118.156725 C247.68655,119.05731 251.125926,119.48616 254.393762,119.48616 C257.987524,119.48616 261.186745,118.902924 263.922807,117.693567 C266.650292,116.492788 268.957505,114.82885 270.767251,112.753216 C272.568421,110.68616 273.957895,108.173099 274.884211,105.291228 C275.801949,102.426511 276.265107,99.3302144 276.265107,96.0966862 L276.265107,37.8074074 L276.265107,37.8074074 Z M266.367251,72.8358674 C266.367251,76.3009747 264.900585,78.6339181 263.270955,80.1777778 C261.246784,82.0732943 256.74386,83.625731 251.709162,83.625731 C246.674464,83.625731 241.922807,82.1847953 238.80078,78.2736842 C235.644444,74.3282651 235.275634,68.7875244 235.275634,61.762963 C235.275634,54.7384016 235.644444,47.4736842 238.80078,43.5368421 C241.922807,39.625731 246.777388,38.2276803 251.709162,38.2276803 C255.534503,38.2276803 260.740741,39.0596491 265.080702,40.5863548 C265.826901,40.8436647 266.367251,41.5555556 266.367251,42.3961014 L266.367251,72.8358674 L266.367251,72.8358674 Z"></path>
                    <path d="M332.264327,35.294347 C332.264327,32.6354776 330.111501,30.4740741 327.452632,30.4740741 C324.802339,30.4740741 322.640936,32.6354776 322.640936,35.294347 L322.632359,80.5122807 C322.632359,81.3356725 322.040546,82.0818713 321.414425,82.3391813 C320.796881,82.5879142 318.129435,83.634308 309.046394,83.634308 C304.483431,83.634308 299.654581,81.8159844 296.704094,77.9048733 C293.719298,73.9680312 293.359064,67.0978558 293.359064,60.0732943 L293.359064,35.294347 C293.359064,32.6354776 291.206238,30.4740741 288.547368,30.4740741 C285.888499,30.4740741 283.735673,32.6354776 283.735673,35.294347 L283.735673,60.0561404 C283.735673,68.7103314 284.276023,78.0077973 289.902534,84.8093567 C294.817154,90.7532164 303.033918,92.8374269 309.046394,92.8374269 C312.854581,92.8374269 321.2,93.1033138 328.71345,90.3072125 C330.780507,89.6124756 332.25575,86.9278752 332.25575,84.6292398 L332.264327,35.294347 L332.264327,35.294347 Z" id="Path"></path>
                    <path d="M386.247953,37.0697856 C379.326316,28.9559454 368.210526,29.0331384 365.929045,29.0417154 C363.82768,29.0502924 352.823392,29.1103314 346.167641,37.0697856 C343.148538,40.6807018 341.956335,44.6261209 341.124366,48.1169591 C340.08655,52.4998051 339.949318,56.5481481 339.949318,60.8881092 C339.949318,69.0448343 340.644055,78.4366472 346.167641,84.7750487 C351.691228,91.1391813 359.676413,92.8031189 366.212086,92.8031189 C373.425341,92.8031189 381.281871,92.211306 387.054191,88.2230019 C388.186355,87.5282651 388.958285,86.3875244 389.34425,85.2982456 C389.532943,84.8007797 389.635867,84.2690058 389.635867,83.702924 C389.635867,81.2241715 387.62885,79.217154 385.150097,79.217154 C384.566862,79.217154 384.026511,79.345809 383.511891,79.5259259 C383.220273,79.6288499 382.851462,79.8518519 382.045224,80.2807018 C377.773879,82.6651072 373.699805,83.77154 366.212086,83.6 C361.177388,83.6 356.425731,82.2191033 353.303704,78.3165692 C350.378947,74.662768 349.94152,68.8647173 349.881481,62.4405458 L387.491618,62.4405458 C390.304873,62.4405458 392.586355,60.1590643 392.586355,57.345809 C392.586355,43.6226121 386.247953,37.0697856 386.247953,37.0697856 L386.247953,37.0697856 Z M350.121637,53.6834308 C350.104483,52.654191 349.975828,45.4838207 355.842495,41.1009747 C359.42768,38.4163743 363.347368,38.2448343 365.740351,38.2448343 C368.133333,38.2448343 372.653411,38.1504873 376.624561,41.1610136 C382.499805,45.6210526 382.551267,52.688499 382.534113,53.6834308 L350.121637,53.6834308 L350.121637,53.6834308 Z"></path>
                    <path d="M431.225731,41.9072125 C431.568811,41.9929825 431.929045,42.0358674 432.297856,42.0358674 C434.682261,42.0358674 436.620663,40.0974659 436.620663,37.6959064 C436.62924,37.6444444 436.620663,37.5929825 436.620663,37.5415205 C436.620663,36.1434698 435.737232,34.0849903 434.038986,33.0300195 C429.853411,30.1224172 423.463548,29.0331384 417.897076,29.0331384 C412.322027,29.0331384 406.42963,30.4483431 402.767251,33.2187135 C399.070565,36.0319688 397.192203,40.0031189 397.192203,45.0120858 C397.192203,54.1894737 403.976608,60.8538012 417.365302,63.6241715 C423.274854,64.8592593 429.724756,67.9040936 429.724756,73.1703704 C429.724756,75.8292398 428.455361,78.7196881 426.302534,80.2807018 C422.854581,82.7851852 417.871345,83.2826511 415.418324,83.2998051 C412.184795,83.3255361 407.115789,82.6222222 402.844444,80.2292398 C402.65575,80.1005848 402.45848,79.9890838 402.252632,79.8775828 C401.592203,79.5173489 400.837427,79.311501 400.031189,79.311501 C397.466667,79.311501 395.391033,81.3957115 395.391033,83.9688109 C395.391033,85.0580897 395.768421,86.0615984 396.394542,86.8592593 C396.780507,87.3738791 397.260819,87.845614 397.826901,88.205848 C403.607797,92.202729 411.841715,92.8031189 415.581287,92.8031189 C419.11501,92.8031189 422.545809,92.0740741 426.328265,90.8990253 C429.047173,90.0584795 431.405848,88.8319688 433.34425,87.2366472 C435.274074,85.6499025 436.817934,83.702924 437.907212,81.4557505 C439.005068,79.2 439.785575,75.8549708 439.785575,73.1703704 C439.785575,60.8623782 428.85848,55.9906433 419.320858,54.1294347 C411.215595,52.4483431 407.107212,48.9746589 407.107212,45.0120858 C407.107212,43.862768 407.390253,42.8592593 407.956335,42.0272904 C408.539571,41.1781676 409.277193,40.5005848 410.169201,40.0116959 C411.08694,39.505653 412.159064,39.1368421 413.359844,38.8966862 C414.586355,38.6651072 415.950097,38.5364522 417.897076,38.5450292 C420.641715,38.5536062 426.482651,39.797271 429.004288,41.0409357 C429.707602,41.3925926 430.462378,41.7185185 431.225731,41.9072125 L431.225731,41.9072125 Z" id="Path"></path>
                </g>
                <g id="Shape" transform="translate(283.040936, 102.923977)">
                    <path d="M7.09317739,15.6701754 L5.94385965,15.6701754 C5.52358674,15.6701754 5.18908382,15.3699805 5.18908382,14.9925926 L5.18908382,3.39649123 L1.44951267,3.39649123 C1.02923977,3.39649123 0.694736842,3.0877193 0.694736842,2.71890838 L0.694736842,1.62962963 C0.694736842,1.26081871 1.02923977,0.960623782 1.44951267,0.960623782 L11.6132554,0.960623782 C12.0249513,0.960623782 12.3680312,1.26081871 12.3680312,1.62962963 L12.3680312,2.71890838 C12.3680312,3.0877193 12.0249513,3.39649123 11.6132554,3.39649123 L7.84795322,3.39649123 L7.84795322,14.9925926 C7.84795322,15.3699805 7.51345029,15.6701754 7.09317739,15.6701754 L7.09317739,15.6701754 Z" id="Path"></path>
                    <path d="M34.2050682,15.6701754 L25.0448343,15.6701754 C24.6331384,15.6701754 24.2900585,15.3699805 24.2900585,14.9925926 L24.2900585,1.62962963 C24.2900585,1.26081871 24.6331384,0.960623782 25.0448343,0.960623782 L34.2050682,0.960623782 C34.6253411,0.960623782 34.9684211,1.26081871 34.9684211,1.62962963 L34.9684211,2.71890838 C34.9684211,3.0877193 34.6253411,3.39649123 34.2050682,3.39649123 L26.9575049,3.39649123 L26.9575049,7.0588694 L33.0128655,7.0588694 C33.4417154,7.0588694 33.7762183,7.36764133 33.7762183,7.72787524 L33.7762183,8.75711501 C33.7762183,9.12592593 33.4417154,9.42612086 33.0128655,9.42612086 L26.9575049,9.42612086 L26.9575049,13.234308 L34.2050682,13.234308 C34.6253411,13.234308 34.9684211,13.5345029 34.9684211,13.9118908 L34.9684211,14.9840156 C34.9684211,15.3699805 34.6253411,15.6701754 34.2050682,15.6701754 L34.2050682,15.6701754 Z" id="Path"></path>
                    <path d="M58.0062378,15.6701754 L48.8460039,15.6701754 C48.425731,15.6701754 48.0912281,15.3699805 48.0912281,14.9925926 L48.0912281,1.62962963 C48.0912281,1.26081871 48.425731,0.960623782 48.8460039,0.960623782 L49.9867446,0.960623782 C50.4155945,0.960623782 50.7586745,1.26081871 50.7586745,1.62962963 L50.7586745,13.234308 L58.0062378,13.234308 C58.4265107,13.234308 58.7695906,13.5345029 58.7695906,13.9118908 L58.7695906,14.9840156 C58.7695906,15.3699805 58.4265107,15.6701754 58.0062378,15.6701754 L58.0062378,15.6701754 Z" id="Path"></path>
                    <path d="M79.8089669,15.6701754 L70.6573099,15.6701754 C70.237037,15.6701754 69.8939571,15.3699805 69.8939571,14.9925926 L69.8939571,1.62962963 C69.8939571,1.26081871 70.237037,0.960623782 70.6573099,0.960623782 L79.8089669,0.960623782 C80.2378168,0.960623782 80.5723197,1.26081871 80.5723197,1.62962963 L80.5723197,2.71890838 C80.5723197,3.0877193 80.2378168,3.39649123 79.8089669,3.39649123 L72.5614035,3.39649123 L72.5614035,7.0588694 L78.6253411,7.0588694 C79.045614,7.0588694 79.380117,7.36764133 79.380117,7.72787524 L79.380117,8.75711501 C79.380117,9.12592593 79.045614,9.42612086 78.6253411,9.42612086 L72.5614035,9.42612086 L72.5614035,13.234308 L79.8089669,13.234308 C80.2378168,13.234308 80.5723197,13.5345029 80.5723197,13.9118908 L80.5723197,14.9840156 C80.5723197,15.3699805 80.2378168,15.6701754 79.8089669,15.6701754 L79.8089669,15.6701754 Z" id="Path"></path>
                    <path d="M103.987524,11.2101365 L102.803899,11.0300195 C102.452242,10.9699805 102.100585,11.1500975 101.97193,11.4502924 C101.774659,12.0592593 101.483041,12.4366472 101.062768,12.7968811 C100.445224,13.345809 99.6046784,13.6545809 98.6955166,13.6545809 C97.7863548,13.6545809 96.945809,13.345809 96.3282651,12.7968811 C95.4619883,12.0421053 95.1103314,11.2187135 95.1103314,8.32826511 C95.1103314,5.43781676 95.4619883,4.59727096 96.3282651,3.83391813 C96.945809,3.28499025 97.7863548,2.97621832 98.6955166,2.97621832 C99.6046784,2.97621832 100.445224,3.28499025 101.062768,3.83391813 C101.474464,4.19415205 101.774659,4.57153996 101.97193,5.18908382 C102.100585,5.48927875 102.452242,5.66081871 102.803899,5.60935673 L103.987524,5.42066277 C104.219103,5.38635478 104.407797,5.25769981 104.527875,5.08615984 C104.65653,4.91461988 104.673684,4.68304094 104.596491,4.49434698 C104.322027,3.65380117 103.858869,2.95906433 103.08694,2.29005848 C101.929045,1.25224172 100.316569,0.737621832 98.6955166,0.737621832 C97.0830409,0.737621832 95.4705653,1.25224172 94.3040936,2.29005848 C92.6487329,3.75672515 92.4,5.2748538 92.4,8.30253411 C92.4,11.3302144 92.6487329,12.8826511 94.3040936,14.3407407 C95.4705653,15.3785575 97.0830409,15.8931774 98.6955166,15.8931774 C100.316569,15.8931774 101.929045,15.3699805 103.08694,14.3407407 C103.858869,13.6717349 104.322027,12.985575 104.596491,12.1364522 C104.673684,11.9477583 104.65653,11.7247563 104.527875,11.5446394 C104.407797,11.3730994 104.219103,11.2530214 103.987524,11.2101365 L103.987524,11.2101365 Z" id="Path"></path>
                    <path d="M126.553606,2.27290448 C125.395712,1.24366472 123.774659,0.729044834 122.162183,0.729044834 C120.549708,0.729044834 118.928655,1.24366472 117.77076,2.27290448 C116.106823,3.73957115 115.85809,5.2662768 115.85809,8.29395712 C115.85809,11.3302144 116.106823,12.8397661 117.77076,14.3064327 C118.937232,15.3442495 120.498246,15.9017544 122.162183,15.9017544 C123.834698,15.9017544 125.387135,15.3442495 126.553606,14.3064327 C128.217544,12.8397661 128.4577,11.3302144 128.4577,8.29395712 C128.4577,5.2662768 128.217544,3.73957115 126.553606,2.27290448 L126.553606,2.27290448 Z M124.529435,12.7625731 C123.911891,13.311501 123.037037,13.5859649 122.162183,13.5859649 C121.287329,13.5859649 120.412476,13.311501 119.794932,12.7625731 C118.928655,11.9992203 118.576998,11.1844055 118.576998,8.29395712 C118.576998,5.40350877 118.928655,4.58869396 119.794932,3.82534113 C120.412476,3.27641326 121.253021,2.96764133 122.162183,2.96764133 C123.071345,2.96764133 123.911891,3.27641326 124.529435,3.82534113 C125.395712,4.58869396 125.747368,5.40350877 125.747368,8.29395712 C125.747368,11.1844055 125.395712,11.9906433 124.529435,12.7625731 L124.529435,12.7625731 Z"></path>
                    <path d="M152.833528,15.6701754 L151.692788,15.6701754 C151.272515,15.6701754 150.920858,15.3699805 150.920858,14.9925926 L150.920858,7.77076023 L147.807407,15.2413255 C147.687329,15.4814815 147.404288,15.6444444 147.104094,15.6444444 L145.963353,15.6444444 C145.663158,15.6444444 145.397271,15.4900585 145.268616,15.2413255 L142.060819,7.71072125 L142.060819,14.9925926 C142.060819,15.3699805 141.717739,15.6701754 141.306043,15.6701754 L140.156725,15.6701754 C139.736452,15.6701754 139.401949,15.3699805 139.401949,14.9925926 L139.401949,1.62962963 C139.401949,1.26081871 139.736452,0.960623782 140.156725,0.960623782 L141.306043,0.960623782 C141.597661,0.960623782 141.863548,1.11500975 141.992203,1.35516569 L146.546589,12.1364522 L150.998051,1.36374269 C151.109552,1.11500975 151.384016,0.960623782 151.692788,0.960623782 L152.833528,0.960623782 C153.253801,0.960623782 153.596881,1.26081871 153.596881,1.62962963 L153.596881,14.9925926 C153.596881,15.3699805 153.253801,15.6701754 152.833528,15.6701754 L152.833528,15.6701754 Z" id="Path"></path>
                </g>
            </g>
            <g id="Group" transform="translate(47.000000, 0.000000)">
                <path d="M203.54427,281.109513 C228.030637,298.01779 276.465918,270.392697 311.722846,219.323895 C346.990524,168.255094 355.729513,113.209139 331.253895,96.3116105 C306.767528,79.4033333 259.546891,105.609551 224.289963,156.689101 C189.022285,207.757903 179.068652,264.201236 203.54427,281.109513 L203.54427,281.109513 Z" id="Shape" fill="#EA5B0F"></path>
                <path d="M142.489588,281.109513 C118.003221,298.01779 69.5679401,270.392697 34.3110112,219.323895 C-0.956666667,168.255094 -9.69565543,113.209139 14.7799625,96.3116105 C39.2663296,79.4033333 86.4869663,105.609551 121.743895,156.689101 C157.011573,207.757903 166.965206,264.201236 142.489588,281.109513 L142.489588,281.109513 Z" id="Shape" fill="#0055A4"></path>
                <ellipse id="Oval" fill="#009DCC" cx="172.995431" cy="53.8635581" rx="112.478202" ry="53.7883146"></ellipse>
            </g>
        </g>
    </g>
</svg>