<?xml version="1.0" encoding="UTF-8" standalone="no"?>
<svg
   xmlns:dc="http://purl.org/dc/elements/1.1/"
   xmlns:cc="http://creativecommons.org/ns#"
   xmlns:rdf="http://www.w3.org/1999/02/22-rdf-syntax-ns#"
   xmlns:svg="http://www.w3.org/2000/svg"
   xmlns="http://www.w3.org/2000/svg"
   id="svg12"
   version="1.1"
   viewBox="0 -16 60 60"
   height="60"
   width="60">
  <metadata
     id="metadata18">
    <rdf:RDF>
      <cc:Work
         rdf:about="">
        <dc:format>image/svg+xml</dc:format>
        <dc:type
           rdf:resource="http://purl.org/dc/dcmitype/StillImage" />
        <dc:title></dc:title>
      </cc:Work>
    </rdf:RDF>
  </metadata>
  <defs
     id="defs16" />
  <g
     transform="translate(0,-4)"
     style="fill:none"
     id="g10">
    <rect
       transform="scale(-1,1)"
       height="60"
       width="60"
       y="-12"
       x="-60"
       id="rect815"
       style="fill:#ffffff;fill-opacity:1" />
    <path
       style="fill:#dc0005;stroke-width:0.83168167"
       id="path2"
       d="m 55.696847,15.289713 c 0,-0.431643 -0.225386,-1.017147 -1.299087,-1.35481 -0.738533,-0.231207 -1.63176,-0.280276 -2.252194,-0.280276 -2.292115,0 -4.719794,0.723563 -6.66177,1.987719 -1.966928,1.277463 -3.093856,2.877619 -3.093856,4.384626 0,0.651207 0.315207,2.775322 4.367992,2.775322 2.537461,0 4.876981,-0.729385 7.587432,-2.363639 0.108687,-0.06772 0.1752,-0.18632 0.176317,-0.314376 0.0036,-0.128144 -0.05814,-0.249343 -0.163842,-0.321861 l -0.457425,-0.302732 c -0.102295,-0.06845 -0.233928,-0.07516 -0.342653,-0.01747 -2.069224,1.088671 -3.8773,1.618452 -5.525693,1.618452 -1.391403,0 -2.327045,-0.402534 -2.327045,-1.001344 0,-0.377584 0.04907,-0.702771 0.153029,-1.014652 3.033143,-0.170495 9.838795,-0.882414 9.838795,-3.794964 z m -4.301458,-0.324356 c 0.353465,0 0.634573,0.05655 0.817543,0.16301 0.149703,0.08816 0.168832,0.170494 0.168832,0.232871 0,1.380591 -2.936669,2.285461 -5.933218,2.495877 0.800078,-1.056236 2.815243,-2.890926 4.946843,-2.890926 z M 21.636155,13.924923 c -0.08756,-0.146247 -0.245384,-0.235889 -0.415841,-0.236197 h -4.158409 l 1.230889,-2.513342 c 0.586336,-1.2441961 1.249186,-2.6505699 3.734251,-2.6505699 0.47988,0 0.961424,0.1197621 1.427998,0.2361976 0.47988,0.1197622 0.931483,0.2320392 1.39473,0.2320392 0.489029,0 0.948117,-0.2129105 1.291601,-0.5996425 0.275287,-0.3093856 0.446614,-0.6919592 0.446614,-0.9996814 0,-0.7776224 -0.845821,-1.2242354 -2.320392,-1.2242354 -1.825542,0 -3.779162,0.6013058 -4.998407,1.1643543 -4.321418,1.9586104 -5.550644,4.0943691 -6.803157,6.3548801 H 8.8074655 c -0.180345,-6.05e-4 -0.345802,0.09995 -0.428316,0.260316 l -0.492356,0.955602 c -0.163872,0.319399 0.07018,0.698598 0.429148,0.695286 H 11.588608 L 5.0100066,29.468223 c -0.084075,0.179055 -0.049013,0.391413 0.088158,0.53394 l 0.1347325,0.139722 c 0.1094542,0.11249 0.2665201,0.165155 0.4216626,0.141386 L 8.3899605,29.86244 c 0.15078,-0.02344 0.281729,-0.116491 0.353465,-0.251168 L 16.090501,15.59993 h 4.592547 c 0.174653,0 0.335999,-0.09398 0.419999,-0.245346 l 0.53893,-0.95477 c 0.08295,-0.14791 0.08105,-0.328757 -0.005,-0.474891 z" />
    <path
       style="fill:#dc0005;stroke-width:0.83168167"
       id="path4"
       d="m 43.545146,19.80325 -0.458257,-0.303564 a 0.34015781,0.34015781 0 0 0 -0.342653,-0.01663 c -2.068392,1.088672 -3.875637,1.617621 -5.525693,1.617621 -1.391404,0 -2.326214,-0.402534 -2.326214,-1.000513 0,-0.380078 0.04824,-0.705266 0.15303,-1.014651 3.033143,-0.171327 9.839626,-0.883246 9.839626,-3.795796 0,-1.476235 -2.484233,-1.635086 -3.551281,-1.635086 -4.833734,0 -9.755626,3.216113 -9.755626,6.373177 0,0.651207 0.314375,2.775322 4.36716,2.775322 2.537461,0 4.877813,-0.729385 7.587432,-2.36364 a 0.37342508,0.37342508 0 0 0 0.176317,-0.315207 0.38007853,0.38007853 0 0 0 -0.163841,-0.321029 z m -2.963282,-4.837061 c 0.572197,0 0.988038,0.166336 0.988038,0.394217 0,1.381423 -2.9375,2.287125 -5.934049,2.49754 0.799246,-1.057899 2.814411,-2.891757 4.946011,-2.891757 z" />
    <path
       style="fill:#dc0005;stroke-width:0.83168167"
       id="path6"
       d="m 33.299659,16.320167 c 1.134414,0 1.605145,-1.098652 1.605145,-1.688314 0,-0.363445 -0.164673,-0.977226 -1.269977,-0.977226 -1.122771,0 -2.638926,0.931483 -4.511874,2.7695 l 0.293584,-0.618771 c 0.306059,-0.657029 0.345148,-0.933979 0.345148,-1.10281 0,-0.478217 -0.273623,-1.047919 -1.576869,-1.047919 -1.600155,0 -4.003715,1.778135 -4.794645,2.464273 a 0.39089039,0.39089039 0 0 0 -0.12891,0.305227 0.3859003,0.3859003 0 0 0 0.144712,0.296078 l 0.395881,0.302733 a 0.29774205,0.29774205 0 0 0 0.359286,0.0042 c 0.36594,-0.266139 1.614295,-1.134414 2.380273,-1.134414 0.133069,0 0.199604,0.04408 0.227049,0.07069 a 0.11227703,0.11227703 0 0 1 0.02412,0.03244 c -0.0075,0.147207 -0.155524,0.54392 -0.318534,0.847483 -0.0058,0.01164 -2.384431,4.873656 -2.407718,4.923556 A 0.68114731,0.68114731 0 0 0 23.962369,22.112 c 0,0.682811 1.287444,0.690296 1.300751,0.690296 0.914018,0 1.2417,-0.04824 1.380591,-0.331841 l 0.547247,-1.136909 c 1.04875,-1.893739 3.096351,-5.084902 4.981773,-5.084902 0.170495,0 0.349306,0.01663 0.536435,0.0341 0.194613,0.0183 0.395049,0.03659 0.590494,0.03659 z" />
  </g>
</svg>
