<?xml version="1.0" encoding="UTF-8"?>
<svg width="500px" height="500px" viewBox="0 0 500 500" version="1.1" xmlns="http://www.w3.org/2000/svg" xmlns:xlink="http://www.w3.org/1999/xlink">
    <!-- Generator: Sketch 62 (91390) - https://sketch.com -->
    <title>orange_sq</title>
    <desc>Created with Sketch.</desc>
    <g id="orange_sq" stroke="none" stroke-width="1" fill="none" fill-rule="evenodd">
        <g id="Orange_logo" transform="translate(0.000000, -1.000000)" fill-rule="nonzero">
            <path d="M0,0 L499.407363,0 C499.40221,166.907157 499.412517,333.814314 499.40221,500.721471 C332.938243,500.731778 166.463968,500.721471 0,500.726624 L0,0 M432.398169,362.17843 C432.377557,363.240024 432.372402,364.306769 432.393016,365.373516 C434.779024,365.358055 437.175338,365.368363 439.561346,365.368363 C439.576806,372.011049 439.561346,378.653735 439.571652,385.301575 C440.875454,385.291268 442.179255,385.291268 443.483055,385.296422 C443.483055,378.653735 443.477902,372.011049 443.488208,365.368363 C445.879369,365.368363 448.280838,365.363208 450.671999,365.368363 C450.666846,364.306769 450.666846,363.25033 450.671999,362.188736 C444.580723,362.17843 438.489446,362.199044 432.398169,362.17843 M455.227573,362.183583 C455.212112,369.887863 455.212112,377.592142 455.227573,385.296422 C456.52622,385.296422 457.824868,385.296422 459.128669,385.296422 C459.154435,378.98355 459.087442,372.675832 459.169896,366.362962 C461.782652,372.619145 464.142892,378.978397 466.637121,385.280962 C467.471966,385.286115 468.311964,385.286115 469.162269,385.286115 C471.677111,378.957784 474.073425,372.583073 476.655261,366.285661 C476.701641,372.619145 476.665567,378.957784 476.681028,385.296422 C477.974522,385.291268 479.273169,385.291268 480.571818,385.306728 C480.618198,377.602449 480.576971,369.898169 480.59243,362.193891 C478.613538,362.17843 476.634646,362.183583 474.660909,362.193891 C472.460422,367.981119 470.213555,373.752887 467.982149,379.529807 C465.735282,373.742579 463.447189,367.970811 461.200322,362.183583 C459.20597,362.188736 457.211617,362.183583 455.227573,362.183583 M59.2791478,386.821818 C49.5599024,387.213472 39.7736649,391.619599 33.9864367,399.63308 C29.0082863,406.347914 27.0190884,414.881885 27.0603153,423.142728 C26.9108681,430.919154 28.4774908,438.927482 32.6311016,445.590781 C35.996248,451.043041 41.1496121,455.320332 47.0759815,457.721801 C54.2185435,460.623145 62.226872,461.143635 69.7507836,459.592472 C76.728438,458.154683 83.3350515,454.495794 87.8803179,448.945621 C91.9823958,444.034466 94.3580976,437.860736 95.3269288,431.573631 C96.373062,424.271314 96.094781,416.685562 93.9406741,409.60484 C91.9205554,402.967307 87.8236306,396.922412 82.1291636,392.928554 C75.5380106,388.249299 67.2668615,386.394088 59.2791478,386.821818 M125.798772,396.680203 C125.809078,393.97984 125.809078,391.279478 125.798772,388.584268 C119.980623,388.584268 114.162475,388.553348 108.344327,388.604881 C108.375248,411.877474 108.34948,435.150066 108.359788,458.422658 C114.595358,458.448425 120.830929,458.422658 127.066499,458.438119 C127.09742,442.988332 127.030425,427.533393 127.102573,412.088761 C127.86527,409.816128 129.94723,408.172204 132.024036,407.095152 C136.790897,404.827672 142.191623,404.631844 147.370753,404.585463 C147.370753,398.813695 147.3656,393.041927 147.375908,387.275314 C139.212979,386.512615 131.055203,390.552852 125.798772,396.680203 M171.581259,389.166598 C165.232314,391.197024 159.568766,395.319715 155.744971,400.802894 C159.872815,403.219822 164.041887,405.569756 168.200652,407.929997 C171.746166,403.529024 176.987137,400.493693 182.655838,400.04535 C186.711536,399.694921 191.571158,399.901055 194.467348,403.194055 C196.518388,405.549142 195.920596,408.842142 195.997897,411.702259 C186.47448,412.825693 176.863456,414.392315 167.989364,418.169731 C162.980293,420.344451 158.094905,423.462236 155.136873,428.193024 C151.833567,433.500989 151.498599,440.28797 153.33835,446.167958 C154.832825,451.017274 158.429873,455.160579 163.057594,457.237385 C168.360406,459.705846 174.425916,459.571859 180.079156,458.67002 C185.716937,457.726954 191.117662,455.526467 195.89483,452.388069 C196.425627,454.403034 196.956423,456.412847 197.492373,458.432966 C202.949786,458.427811 208.407198,458.432966 213.864611,458.432966 C213.663629,442.292628 213.792464,426.141985 213.77185,410.001649 C214.096512,405.245094 213.199827,400.210257 210.216029,396.381307 C206.335546,391.202177 199.909301,388.749175 193.720111,387.75973 C186.361107,386.70329 178.703207,386.888811 171.581259,389.166598 M262.677276,387.666968 C256.137657,389.01715 250.412269,392.696652 245.073384,396.551369 C244.537434,393.820086 243.91903,391.099109 243.434615,388.362673 C238.337937,389.058377 233.236107,389.764388 228.13943,390.480706 C228.129123,413.098821 228.13943,435.711782 228.13943,458.324744 C234.235859,458.329325 240.327136,458.324744 246.428719,458.324744 C246.428719,441.653612 246.428719,424.987632 246.428719,408.321652 C250.747237,404.724604 255.689314,401.447065 261.388934,400.7359 C264.259359,400.416392 267.629658,400.586453 269.721925,402.859087 C271.788423,405.276015 272.118239,408.630855 272.216153,411.686799 C272.226459,427.234499 272.221306,442.777045 272.221306,458.324744 C278.35381,458.335051 284.486313,458.324744 290.618815,458.324744 C290.618815,441.787599 290.618815,425.250454 290.618815,408.713309 C290.546669,405.394541 290.093173,402.050008 288.949127,398.92707 C287.459803,394.727078 284.372939,391.093956 280.296628,389.249051 C274.818602,386.759976 268.510884,386.558996 262.677276,387.666968 M310.474728,397.829404 C304.867868,405.420309 302.904435,415.124092 303.084803,424.420763 C303.162104,432.903199 305.043082,441.782446 310.418041,448.54366 C314.679873,454.042298 321.322559,457.433212 328.18684,458.154683 C333.19591,458.633946 338.550256,458.422658 343.028529,455.871743 C346.141161,454.135059 348.33134,451.218256 350.171092,448.234458 C350.315385,451.171875 350.212319,454.114446 350.243239,457.051863 C350.124711,460.942653 349.557842,465.178719 346.867785,468.19859 C344.414784,470.92472 340.590988,471.888398 337.045474,471.898706 C333.319591,471.950239 329.294814,471.821405 326.068807,469.723985 C324.460958,468.68816 323.63642,466.874175 323.16231,465.091111 C317.112261,466.065098 311.067364,467.044236 305.017315,468.018222 C306.114982,473.666309 310.052152,478.458938 315.035455,481.169607 C322.817034,485.498433 332.067323,485.977697 340.745588,485.142851 C348.2695,484.39046 356.215988,482.246661 361.58064,476.583113 C366.388728,471.501897 367.893511,464.266573 368.001731,457.474439 C368.001731,434.438902 368.001731,411.408517 368.001731,388.37298 C362.812294,388.4039 357.622856,388.295679 352.438573,388.429668 C352.036609,391.001195 351.53158,393.562417 351.083237,396.133946 C349.475388,392.79972 346.342142,390.485859 342.982149,389.125371 C338.565715,387.316541 333.695786,386.888811 328.959844,387.161939 C321.600842,387.718503 314.777786,391.887574 310.474728,397.829404 M386.981571,397.30376 C381.931274,403.317736 379.679255,411.19723 379.117538,418.922123 C378.576435,427.353026 379.3649,436.144665 383.214462,443.787104 C386.19826,449.744393 391.320704,454.624629 397.520201,457.087937 C405.482149,460.298483 414.418082,460.267562 422.714999,458.510265 C430.836701,456.732355 438.47914,451.852119 442.612137,444.493115 C438.102943,442.014347 433.598904,439.509813 429.110323,436.994971 C427.095358,439.886008 424.642356,442.591524 421.462731,444.19422 C417.881142,446.018511 413.701765,446.250412 409.790361,445.683542 C406.002639,445.132132 402.42105,443.04502 400.354551,439.782941 C397.803636,435.773623 397.102778,430.877927 397.071859,426.203826 C412.470111,426.214132 427.873516,426.203826 443.282074,426.208979 C443.802565,420.061016 443.21508,413.794525 441.447478,407.883616 C439.504658,401.472831 435.557182,395.536156 429.857561,391.91334 C422.869599,387.388687 414.139801,386.409549 406.028405,387.362921 C398.767315,388.238992 391.676286,391.588679 386.981571,397.30376 Z" id="Shape" fill="#FF6600"></path>
            <path d="M401.343997,403.663011 C403.570251,401.143016 406.889017,399.787681 410.202631,399.586701 C414.428389,399.272346 419.040649,400.457619 421.926533,403.740311 C424.477449,406.579815 425.327755,410.506678 425.425668,414.232561 C416.067158,414.227408 406.708649,414.242868 397.35014,414.222255 C397.654189,410.439685 398.757008,406.538588 401.343997,403.663011 Z" id="Path" fill="#FF6600"></path>
            <path d="M332.902169,400.380318 C337.210381,399.586701 341.899942,400.972955 344.950734,404.162888 C348.537475,407.832083 349.995877,413.052441 350.305079,418.066664 C350.449373,421.741013 350.294773,425.441128 349.712442,429.074249 C349.057966,432.903199 347.769624,436.819756 345.007421,439.648953 C342.492579,442.210174 338.833691,443.379988 335.303636,443.292381 C332.01579,443.395449 328.55273,442.349315 326.274942,439.870547 C323.213844,436.711536 322.198631,432.207495 321.703908,427.97143 C321.301946,423.658063 321.183418,419.293165 321.750289,414.990106 C322.286239,411.207536 323.456053,407.363127 325.981201,404.415402 C327.738497,402.32829 330.217266,400.869888 332.902169,400.380318 Z" id="Path" fill="#FF6600"></path>
            <path d="M58.5267559,402.596265 C62.9895699,401.93148 67.9831794,402.668412 71.4771609,405.734664 C74.7598536,408.56386 76.3573958,412.836 77.0737137,417.010224 C77.8312586,421.704939 77.8003377,426.538794 76.8881926,431.202588 C76.0533483,435.299513 74.2290567,439.432512 70.8278364,442.014347 C67.0349604,444.838185 61.9485897,445.34342 57.4239367,444.410661 C53.7289736,443.65827 50.446281,441.251649 48.5601504,437.984417 C45.8391741,433.253628 45.2413839,427.636462 45.3547573,422.266656 C45.5299723,417.443107 46.380277,412.423731 49.1270198,408.352573 C51.2553588,405.188406 54.7596464,403.090988 58.5267559,402.596265 Z" id="Path" fill="#FF6600"></path>
            <path d="M179.053636,426.714009 C184.26884,424.554749 189.891161,423.596224 195.461947,422.890212 C195.482561,428.332165 195.451641,433.779272 195.477408,439.226377 C190.818766,443.410909 184.876938,446.698755 178.471306,446.580227 C176.322354,446.636914 174.194013,445.719616 172.730459,444.158146 C169.942488,441.019748 169.540526,436.051905 171.699786,432.465164 C173.307636,429.6875 176.188365,427.961123 179.053636,426.714009 Z" id="Path" fill="#FF6600"></path>
            <path d="M499.407363,0 L499.829939,0 L499.829939,501.149201 L0,501.149201 L0,500.726624 C166.463968,500.721471 332.938243,500.731778 499.40221,500.721471 C499.412517,333.814314 499.40221,166.907157 499.407363,0 Z" id="Path" fill="#FED9BF"></path>
            <path d="M432.398169,362.17843 C438.489446,362.199044 444.580723,362.17843 450.671999,362.188736 C450.666846,363.25033 450.666846,364.306769 450.671999,365.368363 C448.280838,365.363208 445.879369,365.368363 443.488208,365.368363 C443.477902,372.011049 443.483055,378.653735 443.483055,385.296422 C442.179255,385.291268 440.875454,385.291268 439.571652,385.301575 C439.561346,378.653735 439.576806,372.011049 439.561346,365.368363 C437.175338,365.368363 434.779024,365.358055 432.393016,365.373516 C432.372402,364.306769 432.377557,363.240024 432.398169,362.17843 Z" id="Path" fill="#FFFFFF"></path>
            <path d="M455.227573,362.183583 C457.211617,362.183583 459.20597,362.188736 461.200322,362.183583 C463.447189,367.970811 465.735282,373.742579 467.982149,379.529807 C470.213555,373.752887 472.460422,367.981119 474.660909,362.193891 C476.634646,362.183583 478.613538,362.17843 480.59243,362.193891 C480.576971,369.898169 480.618198,377.602449 480.571818,385.306728 C479.273169,385.291268 477.974522,385.291268 476.681028,385.296422 C476.665567,378.957784 476.701641,372.619145 476.655261,366.285661 C474.073425,372.583073 471.677111,378.957784 469.162269,385.286115 C468.311964,385.286115 467.471966,385.286115 466.637121,385.280962 C464.142892,378.978397 461.782652,372.619145 459.169896,366.362962 C459.087442,372.675832 459.154435,378.98355 459.128669,385.296422 C457.824868,385.296422 456.52622,385.296422 455.227573,385.296422 C455.212112,377.592142 455.212112,369.887863 455.227573,362.183583 Z" id="Path" fill="#FFFFFF"></path>
            <path d="M59.2791478,386.821818 C67.2668615,386.394088 75.5380106,388.249299 82.1291636,392.928554 C87.8236306,396.922412 91.9205554,402.967307 93.9406741,409.60484 C96.094781,416.685562 96.373062,424.271314 95.3269288,431.573631 C94.3580976,437.860736 91.9823958,444.034466 87.8803179,448.945621 C83.3350515,454.495794 76.728438,458.154683 69.7507836,459.592472 C62.226872,461.143635 54.2185435,460.623145 47.0759815,457.721801 C41.1496121,455.320332 35.996248,451.043041 32.6311016,445.590781 C28.4774908,438.927482 26.9108681,430.919154 27.0603153,423.142728 C27.0190884,414.881885 29.0082863,406.347914 33.9864367,399.63308 C39.7736649,391.619599 49.5599024,387.213472 59.2791478,386.821818 M58.5267559,402.596265 C54.7596464,403.090988 51.2553588,405.188406 49.1270198,408.352573 C46.380277,412.423731 45.5299723,417.443107 45.3547573,422.266656 C45.2413839,427.636462 45.8391741,433.253628 48.5601504,437.984417 C50.446281,441.251649 53.7289736,443.65827 57.4239367,444.410661 C61.9485897,445.34342 67.0349604,444.838185 70.8278364,442.014347 C74.2290567,439.432512 76.0533483,435.299513 76.8881926,431.202588 C77.8003377,426.538794 77.8312586,421.704939 77.0737137,417.010224 C76.3573958,412.836 74.7598536,408.56386 71.4771609,405.734664 C67.9831794,402.668412 62.9895699,401.93148 58.5267559,402.596265 Z" id="Shape" fill="#FFFFFF"></path>
            <path d="M125.798772,396.680203 C131.055203,390.552852 139.212979,386.512615 147.375908,387.275314 C147.3656,393.041927 147.370753,398.813695 147.370753,404.585463 C142.191623,404.631844 136.790897,404.827672 132.024036,407.095152 C129.94723,408.172204 127.86527,409.816128 127.102573,412.088761 C127.030425,427.533393 127.09742,442.988332 127.066499,458.438119 C120.830929,458.422658 114.595358,458.448425 108.359788,458.422658 C108.34948,435.150066 108.375248,411.877474 108.344327,388.604881 C114.162475,388.553348 119.980623,388.584268 125.798772,388.584268 C125.809078,391.279478 125.809078,393.97984 125.798772,396.680203 Z" id="Path" fill="#FFFFFF"></path>
            <path d="M171.581259,389.166598 C178.703207,386.888811 186.361107,386.70329 193.720111,387.75973 C199.909301,388.749175 206.335546,391.202177 210.216029,396.381307 C213.199827,400.210257 214.096512,405.245094 213.77185,410.001649 C213.792464,426.141985 213.663629,442.292628 213.864611,458.432966 C208.407198,458.432966 202.949786,458.427811 197.492373,458.432966 C196.956423,456.412847 196.425627,454.403034 195.89483,452.388069 C191.117662,455.526467 185.716937,457.726954 180.079156,458.67002 C174.425916,459.571859 168.360406,459.705846 163.057594,457.237385 C158.429873,455.160579 154.832825,451.017274 153.33835,446.167958 C151.498599,440.28797 151.833567,433.500989 155.136873,428.193024 C158.094905,423.462236 162.980293,420.344451 167.989364,418.169731 C176.863456,414.392315 186.47448,412.825693 195.997897,411.702259 C195.920596,408.842142 196.518388,405.549142 194.467348,403.194055 C191.571158,399.901055 186.711536,399.694921 182.655838,400.04535 C176.987137,400.493693 171.746166,403.529024 168.200652,407.929997 C164.041887,405.569756 159.872815,403.219822 155.744971,400.802894 C159.568766,395.319715 165.232314,391.197024 171.581259,389.166598 M179.053636,426.714009 C176.188365,427.961123 173.307636,429.6875 171.699786,432.465164 C169.540526,436.051905 169.942488,441.019748 172.730459,444.158146 C174.194013,445.719616 176.322354,446.636914 178.471306,446.580227 C184.876938,446.698755 190.818766,443.410909 195.477408,439.226377 C195.451641,433.779272 195.482561,428.332165 195.461947,422.890212 C189.891161,423.596224 184.26884,424.554749 179.053636,426.714009 Z" id="Shape" fill="#FFFFFF"></path>
            <path d="M262.677276,387.666968 C268.510884,386.558996 274.818602,386.759976 280.296628,389.249051 C284.372939,391.093956 287.459803,394.727078 288.949127,398.92707 C290.093173,402.050008 290.546669,405.394541 290.618815,408.713309 C290.618815,425.250454 290.618815,441.787599 290.618815,458.324744 C284.486313,458.324744 278.35381,458.335051 272.221306,458.324744 C272.221306,442.777045 272.226459,427.234499 272.216153,411.686799 C272.118239,408.630855 271.788423,405.276015 269.721925,402.859087 C267.629658,400.586453 264.259359,400.416392 261.388934,400.7359 C255.689314,401.447065 250.747237,404.724604 246.428719,408.321652 C246.428719,424.987632 246.428719,441.653612 246.428719,458.324744 C240.327136,458.324744 234.235859,458.329325 228.13943,458.324744 C228.13943,435.711782 228.129123,413.098821 228.13943,390.480706 C233.236107,389.764388 238.337937,389.058377 243.434615,388.362673 C243.91903,391.099109 244.537434,393.820086 245.073384,396.551369 C250.412269,392.696652 256.137657,389.01715 262.677276,387.666968 Z" id="Path" fill="#FFFFFF"></path>
            <path d="M310.474728,397.829404 C314.777786,391.887574 321.600842,387.718503 328.959844,387.161939 C333.695786,386.888811 338.565715,387.316541 342.982149,389.125371 C346.342142,390.485859 349.475388,392.79972 351.083237,396.133946 C351.53158,393.562417 352.036609,391.001195 352.438573,388.429668 C357.622856,388.295679 362.812294,388.4039 368.001731,388.37298 C368.001731,411.408517 368.001731,434.438902 368.001731,457.474439 C367.893511,464.266573 366.388728,471.501897 361.58064,476.583113 C356.215988,482.246661 348.2695,484.39046 340.745588,485.142851 C332.067323,485.977697 322.817034,485.498433 315.035455,481.169607 C310.052152,478.458938 306.114982,473.666309 305.017315,468.018222 C311.067364,467.044236 317.112261,466.065098 323.16231,465.091111 C323.63642,466.874175 324.460958,468.68816 326.068807,469.723985 C329.294814,471.821405 333.319591,471.950239 337.045474,471.898706 C340.590988,471.888398 344.414784,470.92472 346.867785,468.19859 C349.557842,465.178719 350.124711,460.942653 350.243239,457.051863 C350.212319,454.114446 350.315385,451.171875 350.171092,448.234458 C348.33134,451.218256 346.141161,454.135059 343.028529,455.871743 C338.550256,458.422658 333.19591,458.633946 328.18684,458.154683 C321.322559,457.433212 314.679873,454.042298 310.418041,448.54366 C305.043082,441.782446 303.162104,432.903199 303.084803,424.420763 C302.904435,415.124092 304.867868,405.420309 310.474728,397.829404 M332.902169,400.380318 C330.217266,400.869888 327.738497,402.32829 325.981201,404.415402 C323.456053,407.363127 322.286239,411.207536 321.750289,414.990106 C321.183418,419.293165 321.301946,423.658063 321.703908,427.97143 C322.198631,432.207495 323.213844,436.711536 326.274942,439.870547 C328.55273,442.349315 332.01579,443.395449 335.303636,443.292381 C338.833691,443.379988 342.492579,442.210174 345.007421,439.648953 C347.769624,436.819756 349.057966,432.903199 349.712442,429.074249 C350.294773,425.441128 350.449373,421.741013 350.305079,418.066664 C349.995877,413.052441 348.537475,407.832083 344.950734,404.162888 C341.899942,400.972955 337.210381,399.586701 332.902169,400.380318 Z" id="Shape" fill="#FFFFFF"></path>
            <path d="M386.981571,397.30376 C391.676286,391.588679 398.767315,388.238992 406.028405,387.362921 C414.139801,386.409549 422.869599,387.388687 429.857561,391.91334 C435.557182,395.536156 439.504658,401.472831 441.447478,407.883616 C443.21508,413.794525 443.802565,420.061016 443.282074,426.208979 C427.873516,426.203826 412.470111,426.214132 397.071859,426.203826 C397.102778,430.877927 397.803636,435.773623 400.354551,439.782941 C402.42105,443.04502 406.002639,445.132132 409.790361,445.683542 C413.701765,446.250412 417.881142,446.018511 421.462731,444.19422 C424.642356,442.591524 427.095358,439.886008 429.110323,436.994971 C433.598904,439.509813 438.102943,442.014347 442.612137,444.493115 C438.47914,451.852119 430.836701,456.732355 422.714999,458.510265 C414.418082,460.267562 405.482149,460.298483 397.520201,457.087937 C391.320704,454.624629 386.19826,449.744393 383.214462,443.787104 C379.3649,436.144665 378.576435,427.353026 379.117538,418.922123 C379.679255,411.19723 381.931274,403.317736 386.981571,397.30376 M401.343997,403.663011 C398.757008,406.538588 397.654189,410.439685 397.35014,414.222255 C406.708649,414.242868 416.067158,414.227408 425.425668,414.232561 C425.327755,410.506678 424.477449,406.579815 421.926533,403.740311 C419.040649,400.457619 414.428389,399.272346 410.202631,399.586701 C406.889017,399.787681 403.570251,401.143016 401.343997,403.663011 Z" id="Shape" fill="#FFFFFF"></path>
        </g>
    </g>
</svg>