<?xml version="1.0" encoding="UTF-8"?>
<svg width="500px" height="500px" viewBox="0 0 500 500" version="1.1" xmlns="http://www.w3.org/2000/svg" xmlns:xlink="http://www.w3.org/1999/xlink">
    <!-- Generator: Sketch 62 (91390) - https://sketch.com -->
    <title>red_sq</title>
    <desc>Created with Sketch.</desc>
    <g id="red_sq" stroke="none" stroke-width="1" fill="none" fill-rule="evenodd">
        <g id="Logo_Red_By_SFR_2016" transform="translate(30.000000, 121.000000)" fill="#00E094" fill-rule="nonzero">
            <g id="g10" transform="translate(220.000000, 129.357154) scale(-1, 1) rotate(-180.000000) translate(-220.000000, -129.357154) translate(0.000000, 0.428583)">
                <g id="g4353" transform="translate(0.000000, 45.000000)">
                    <path d="M439.966621,99.33305 L439.966621,114.834479 C440.146614,142.995729 440.311614,169.598857 418.246686,191.637443 C404.816729,205.051371 385.286793,212.142871 361.766864,212.142871 L282.267114,212.142871 L282.267114,171.546521 L192.902393,171.546521 L192.902393,126.510493 L282.267114,126.510493 L282.267114,85.9191286 L192.902393,85.9191286 L192.902393,40.8830929 L282.267114,40.8830929 L282.267114,0.291732857 L361.766864,0.291732857 C385.286793,0.291732857 404.816729,7.37824714 418.246686,20.7921686 C440.321614,42.84075 440.151614,70.2828643 439.966621,99.33305 M386.706786,52.85875 C379.871807,44.6136286 371.096836,40.9330357 358.251879,40.9330357 L327.371971,40.9330357 L327.371971,171.5615 L358.251879,171.5615 C371.096836,171.5615 379.871807,167.880907 386.691786,159.650771 C392.741764,152.209686 394.891757,143.155536 394.891757,107.123721 C394.891757,75.9560714 393.751764,61.5233643 386.706786,52.85875" id="path34"></path>
                    <path d="M111.23965,0.29124 L161.774493,0.29124 L118.559629,85.7488286 C141.864557,95.4522071 156.324507,119.77805 156.324507,145.612093 C156.324507,184.890029 126.5896,212.1174 84.9897357,212.1174 L0,212.1424 L0.02,0.29124 L45.1048586,0.29124 L45.1048586,77.9631929 L71.9497714,77.9631929 L111.23965,0.29124 L111.23965,0.29124 Z M45.1048586,171.546021 L82.9697429,171.546021 C99.8746857,171.546021 111.23465,160.863814 111.23465,145.227557 C111.23465,127.863364 99.8746857,118.559514 82.9697429,118.559514 L45.1048586,118.559514 L45.1048586,171.546021 L45.1048586,171.546021 Z" id="path38"></path>
                </g>
                <g id="g4357" transform="translate(282.142857, 0.000000)">
                    <path d="M13.4837143,12.1080043 C14.8937071,12.7472329 15.5337071,13.2566257 16.1437071,14.1605471 C16.7787071,15.1343757 17.1537,16.4128471 17.1537,17.6963043 C17.1537,19.7138829 16.2787071,21.3269543 14.7337071,22.1659471 C13.7487143,22.6653471 12.4287143,22.8651114 10.0437286,22.8651114 L2.88375,22.8651114 L0.123757143,0.446975443 L9.04372857,0.446975443 C11.6287214,0.446975443 12.9437143,0.676704014 14.2587143,1.420804 C16.4487071,2.66431829 17.6587,4.78178257 17.6587,7.29876857 C17.6587,8.78698286 17.0887,10.1303757 16.1437071,10.9643686 C15.4387071,11.5386829 14.8337071,11.8133543 13.4837143,12.1080043 M7.99372857,18.4004614 L9.04372857,18.4004614 C10.1837214,18.4004614 10.5587214,18.3355329 10.9287214,18.1307829 C11.4237214,17.8611043 11.7687214,17.1869114 11.7687214,16.37789 C11.7687214,14.6349757 10.7187214,13.8858757 8.26372857,13.8858757 L7.45373571,13.8858757 L7.99372857,18.4004614 Z M10.8937214,5.59081829 C10.2537214,5.05146114 9.60872857,4.91661829 7.89372857,4.91661829 L6.34873571,4.91661829 L6.95373571,9.82074714 L8.66872857,9.82074714 C10.0437286,9.82074714 10.5187214,9.75581857 10.9537214,9.52609714 C11.4987214,9.21646857 11.8337214,8.54726857 11.8337214,7.73824 C11.8337214,6.83431829 11.4987214,6.055254 10.8937214,5.59081829" id="path42"></path>
                    <path d="M35.01565,17.2862971 C34.51065,16.58214 34.20565,16.0777471 33.91065,15.5084257 C33.53565,16.6820257 33.50565,16.8168614 32.6556571,18.7695186 L32.4656571,19.2739186 L30.9156571,22.8646114 L24.6206786,22.8646114 L30.3356643,10.4295114 L29.0956643,0.4514683 L34.78565,0.4514683 L35.9956429,10.2647043 L45.7856143,22.8646114 L38.8506357,22.8646114 L35.01565,17.2862971 L35.01565,17.2862971 Z" id="path46"></path>
                    <path d="M68.8885429,18.5977257 C70.0685357,18.5977257 71.3135357,18.0583686 72.7885286,16.9497043 L75.2835214,21.2545471 C73.0635286,22.6628543 71.0435357,23.3070829 68.7585429,23.3070829 C63.9385571,23.3070829 60.5085643,20.3156686 60.5085643,16.1456614 C60.5085643,13.2541257 61.7185643,11.74094 65.69855,9.75831857 C67.7785429,8.71456857 68.3185429,8.21016857 68.3185429,7.20138286 C68.3185429,5.81803257 67.0985429,4.95407543 65.24855,4.95407543 C63.8035571,4.95407543 62.5635571,5.41851829 60.5735643,6.766904 L58.0185714,2.46206114 C61.0435643,0.609282586 62.8985571,1.11607143e-05 65.59355,1.11607143e-05 C68.2135429,1.11607143e-05 70.2385357,0.7041683 71.8185286,2.22234686 C73.3335286,3.64064686 74.1735214,5.59331114 74.1735214,7.67081857 C74.1735214,10.6672257 72.9335286,12.24534 69.1935429,13.9632829 C66.87355,15.03699 66.33855,15.5763471 66.33855,16.6800257 C66.33855,17.8636043 67.3435429,18.5977257 68.8885429,18.5977257" id="path50"></path>
                    <polygon id="path56" points="81.937 0.448975443 87.6219786 0.448975443 88.6969786 9.18350429 95.1719571 9.18350429 95.7719571 14.1275829 89.3069786 14.1275829 89.7819714 17.9280257 96.88195 17.9280257 97.49195 22.8671114 84.6969929 22.8671114"></polygon>
                    <path d="M119.321386,10.9344043 C120.536379,12.2128757 121.141379,13.9258257 121.141379,15.91344 C121.141379,18.4004614 120.261379,20.4829686 118.681386,21.5566829 C117.436386,22.4705829 115.726393,22.8651114 113.1914,22.8651114 L105.896421,22.8651114 L103.136436,0.446975443 L108.821414,0.446975443 L109.896414,9.35629714 L115.281393,0.446975443 L121.886371,0.446975443 L116.361393,9.15154714 C117.876386,9.68590429 118.551386,10.0954186 119.321386,10.9344043 M111.311407,12.61739 L110.306407,12.61739 L111.016407,18.4004614 L112.086407,18.4004614 C114.5464,18.4004614 115.316393,17.7262686 115.316393,15.6737257 C115.316393,13.62119 114.0064,12.61739 111.311407,12.61739" id="path68"></path>
                </g>
            </g>
        </g>
    </g>
</svg>