<?xml version="1.0" encoding="UTF-8"?>
<svg width="500px" height="500px" viewBox="0 0 500 500" version="1.1" xmlns="http://www.w3.org/2000/svg" xmlns:xlink="http://www.w3.org/1999/xlink">
    <!-- Generator: Sketch 62 (91390) - https://sketch.com -->
    <title>sfr_sq</title>
    <desc>Created with Sketch.</desc>
    <defs>
        <radialGradient cx="67.8714323%" cy="29.8372907%" fx="67.8714323%" fy="29.8372907%" r="68.5992558%" id="radialGradient-1">
            <stop stop-color="#EE0004" offset="0%"></stop>
            <stop stop-color="#EB0004" offset="53.130257%"></stop>
            <stop stop-color="#B30009" offset="100%"></stop>
        </radialGradient>
    </defs>
    <g id="sfr_sq" stroke="none" stroke-width="1" fill="none" fill-rule="evenodd">
        <rect fill="#B30009" x="0" y="0" width="500" height="500"></rect>
        <g id="Logo_SFR_2014" transform="translate(0.000000, -3.000000)" fill-rule="nonzero">
            <g id="g10" transform="translate(250.414431, 251.828822) scale(-1, 1) rotate(-180.000000) translate(-250.414431, -251.828822) translate(0.414431, 0.828822)">
                <g id="g4164">
                    <rect id="rect5139" fill="url(#radialGradient-1)" transform="translate(250.087902, 250.309849) scale(-1, 1) rotate(-180.000000) translate(-250.087902, -250.309849) " x="0.38421373" y="0.606160336" width="499.407376" height="499.407376"></rect>
                    <path d="M162.835452,271.284188 C144.504751,276.417362 142.349476,286.074712 142.349476,292.33893 C142.349476,304.323613 151.64545,312.327913 168.365142,312.327913 C179.903483,312.327913 190.092043,307.412236 197.515778,297.559136 L217.653436,309.304552 C207.878489,323.638314 192.769817,335.57948 168.29984,335.57948 C139.432238,335.57948 115.745988,317.635089 115.745988,291.164391 C115.745988,265.172224 138.104226,253.296301 161.986403,246.575299 C161.986403,246.575299 172.958711,243.421433 173.045801,243.399685 C193.531778,237.98375 195.121021,228.761415 195.121021,220.757135 C195.121021,206.140613 179.794627,197.114027 166.514649,197.114027 C152.625125,197.114027 141.674585,201.659952 132.726928,217.472761 L112.589269,205.509827 C125.629764,183.106543 141.282711,173.992966 166.623507,173.992966 C194.598522,173.992966 221.615657,195.308722 221.615657,221.931675 C221.615657,253.448555 196.013606,262.344614 173.851296,268.086826 C173.785972,268.130402 162.835452,271.284188 162.835452,271.284188 M416.482868,262.801377 C439.516005,262.801377 446.700256,272.63273 446.700256,287.336263 C446.700256,297.037109 442.324402,309.13053 417.353689,309.13053 L388.007143,309.13053 L388.007143,262.801377 L416.482868,262.801377 L416.482868,262.801377 Z M448.333038,177.647092 L413.783352,239.767307 L388.007143,239.767307 L388.007143,177.647092 L362.579262,177.647092 L362.579262,331.925355 L419.639593,331.925355 C442.607426,331.925355 473.238426,325.487134 473.238426,287.096998 C473.238426,260.974324 459.675423,248.924379 438.318624,243.290946 L478.485082,177.647092 L448.333038,177.647092 Z M246.782282,177.647092 L246.782282,331.925355 L341.178907,331.925355 L341.178907,307.520975 L272.188395,307.520975 L272.188395,265.280963 L331.556377,265.280963 L331.556377,241.355114 L272.188395,241.355114 L272.188395,177.647092 L246.782282,177.647092 L246.782282,177.647092 Z" id="path3842" fill="#FFFFFF"></path>
                </g>
            </g>
        </g>
    </g>
</svg>